G04 Layer_Physical_Order=1*
G04 Layer_Color=255*
%FSAX24Y24*%
%MOIN*%
G70*
G01*
G75*
G04:AMPARAMS|DCode=10|XSize=59.1mil|YSize=393.7mil|CornerRadius=14.8mil|HoleSize=0mil|Usage=FLASHONLY|Rotation=0.000|XOffset=0mil|YOffset=0mil|HoleType=Round|Shape=RoundedRectangle|*
%AMROUNDEDRECTD10*
21,1,0.0591,0.3642,0,0,0.0*
21,1,0.0295,0.3937,0,0,0.0*
1,1,0.0295,0.0148,-0.1821*
1,1,0.0295,-0.0148,-0.1821*
1,1,0.0295,-0.0148,0.1821*
1,1,0.0295,0.0148,0.1821*
%
%ADD10ROUNDEDRECTD10*%
%ADD11O,0.0394X0.0669*%
%ADD12O,0.0669X0.0394*%
%ADD13C,0.0295*%
%ADD14C,0.0118*%
%ADD15O,0.0551X0.0472*%
G04:AMPARAMS|DCode=16|XSize=55.1mil|YSize=47.2mil|CornerRadius=11.8mil|HoleSize=0mil|Usage=FLASHONLY|Rotation=180.000|XOffset=0mil|YOffset=0mil|HoleType=Round|Shape=RoundedRectangle|*
%AMROUNDEDRECTD16*
21,1,0.0551,0.0236,0,0,180.0*
21,1,0.0315,0.0472,0,0,180.0*
1,1,0.0236,-0.0157,0.0118*
1,1,0.0236,0.0157,0.0118*
1,1,0.0236,0.0157,-0.0118*
1,1,0.0236,-0.0157,-0.0118*
%
%ADD16ROUNDEDRECTD16*%
%ADD17O,0.0551X0.0630*%
G04:AMPARAMS|DCode=18|XSize=55.1mil|YSize=63mil|CornerRadius=13.8mil|HoleSize=0mil|Usage=FLASHONLY|Rotation=180.000|XOffset=0mil|YOffset=0mil|HoleType=Round|Shape=RoundedRectangle|*
%AMROUNDEDRECTD18*
21,1,0.0551,0.0354,0,0,180.0*
21,1,0.0276,0.0630,0,0,180.0*
1,1,0.0276,-0.0138,0.0177*
1,1,0.0276,0.0138,0.0177*
1,1,0.0276,0.0138,-0.0177*
1,1,0.0276,-0.0138,-0.0177*
%
%ADD18ROUNDEDRECTD18*%
G04:AMPARAMS|DCode=19|XSize=55.1mil|YSize=70.9mil|CornerRadius=13.8mil|HoleSize=0mil|Usage=FLASHONLY|Rotation=0.000|XOffset=0mil|YOffset=0mil|HoleType=Round|Shape=RoundedRectangle|*
%AMROUNDEDRECTD19*
21,1,0.0551,0.0433,0,0,0.0*
21,1,0.0276,0.0709,0,0,0.0*
1,1,0.0276,0.0138,-0.0217*
1,1,0.0276,-0.0138,-0.0217*
1,1,0.0276,-0.0138,0.0217*
1,1,0.0276,0.0138,0.0217*
%
%ADD19ROUNDEDRECTD19*%
%ADD20O,0.0551X0.0709*%
%ADD21C,0.0512*%
%ADD22C,0.0630*%
%ADD23C,0.0472*%
%ADD24C,0.0315*%
G36*
X027953Y026142D02*
X031575D01*
Y026654D01*
X034724Y026654D01*
X034724Y025157D01*
X050315D01*
Y020827D01*
X049213D01*
X049213Y024646D01*
X031575Y024646D01*
Y025079D01*
X026850D01*
Y026979D01*
X025551D01*
Y025680D01*
X023504D01*
Y027283D01*
X027953D01*
Y026142D01*
D02*
G37*
%LPC*%
G36*
X034198Y025785D02*
X033871D01*
X033882Y025697D01*
X033920Y025606D01*
X033980Y025527D01*
X034059Y025467D01*
X034150Y025429D01*
X034198Y025423D01*
Y025785D01*
D02*
G37*
G36*
X028915Y025619D02*
X028633D01*
Y025337D01*
X028670Y025342D01*
X028752Y025376D01*
X028822Y025429D01*
X028876Y025500D01*
X028910Y025582D01*
X028915Y025619D01*
D02*
G37*
G36*
X028533Y026002D02*
X028495Y025997D01*
X028413Y025963D01*
X028343Y025909D01*
X028289Y025839D01*
X028255Y025757D01*
X028250Y025719D01*
X028533D01*
Y026002D01*
D02*
G37*
G36*
X034625Y025785D02*
X034298D01*
Y025423D01*
X034346Y025429D01*
X034437Y025467D01*
X034516Y025527D01*
X034576Y025606D01*
X034614Y025697D01*
X034625Y025785D01*
D02*
G37*
G36*
X028533Y025619D02*
X028250D01*
X028255Y025582D01*
X028289Y025500D01*
X028343Y025429D01*
X028413Y025376D01*
X028495Y025342D01*
X028533Y025337D01*
Y025619D01*
D02*
G37*
G36*
X050136Y021407D02*
X049853D01*
Y021124D01*
X049891Y021129D01*
X049973Y021163D01*
X050043Y021217D01*
X050097Y021287D01*
X050131Y021369D01*
X050136Y021407D01*
D02*
G37*
G36*
X049753D02*
X049471D01*
X049476Y021369D01*
X049509Y021287D01*
X049563Y021217D01*
X049634Y021163D01*
X049715Y021129D01*
X049753Y021124D01*
Y021407D01*
D02*
G37*
G36*
X049853Y021789D02*
Y021507D01*
X050136D01*
X050131Y021544D01*
X050097Y021626D01*
X050043Y021696D01*
X049973Y021750D01*
X049891Y021784D01*
X049853Y021789D01*
D02*
G37*
G36*
X049753D02*
X049715Y021784D01*
X049634Y021750D01*
X049563Y021696D01*
X049509Y021626D01*
X049476Y021544D01*
X049471Y021507D01*
X049753D01*
Y021789D01*
D02*
G37*
G36*
X028633Y026002D02*
Y025719D01*
X028915D01*
X028910Y025757D01*
X028876Y025839D01*
X028822Y025909D01*
X028752Y025963D01*
X028670Y025997D01*
X028633Y026002D01*
D02*
G37*
G36*
X023989Y026794D02*
X023902D01*
X023809Y026775D01*
X023730Y026723D01*
X023678Y026644D01*
X023659Y026551D01*
Y026385D01*
X023989D01*
Y026794D01*
D02*
G37*
G36*
X034298Y026246D02*
Y025885D01*
X034625D01*
X034614Y025972D01*
X034576Y026063D01*
X034516Y026142D01*
X034437Y026202D01*
X034346Y026240D01*
X034298Y026246D01*
D02*
G37*
G36*
X024177Y026794D02*
X024089D01*
Y026385D01*
X024420D01*
Y026551D01*
X024401Y026644D01*
X024349Y026723D01*
X024270Y026775D01*
X024177Y026794D01*
D02*
G37*
G36*
X025089Y026786D02*
Y026385D01*
X025418D01*
Y026413D01*
X025405Y026511D01*
X025367Y026603D01*
X025307Y026681D01*
X025229Y026741D01*
X025137Y026779D01*
X025089Y026786D01*
D02*
G37*
G36*
X024989D02*
X024941Y026779D01*
X024850Y026741D01*
X024771Y026681D01*
X024711Y026603D01*
X024673Y026511D01*
X024661Y026413D01*
Y026385D01*
X024989D01*
Y026786D01*
D02*
G37*
G36*
X024420Y026285D02*
X024089D01*
Y025876D01*
X024177D01*
X024270Y025894D01*
X024349Y025947D01*
X024401Y026025D01*
X024420Y026118D01*
Y026285D01*
D02*
G37*
G36*
X023989D02*
X023659D01*
Y026118D01*
X023678Y026025D01*
X023730Y025947D01*
X023809Y025894D01*
X023902Y025876D01*
X023989D01*
Y026285D01*
D02*
G37*
G36*
X024989D02*
X024661D01*
Y026256D01*
X024673Y026158D01*
X024711Y026066D01*
X024771Y025988D01*
X024850Y025928D01*
X024941Y025890D01*
X024989Y025884D01*
Y026285D01*
D02*
G37*
G36*
X034198Y026246D02*
X034150Y026240D01*
X034059Y026202D01*
X033980Y026142D01*
X033920Y026063D01*
X033882Y025972D01*
X033871Y025885D01*
X034198D01*
Y026246D01*
D02*
G37*
G36*
X025418Y026285D02*
X025089D01*
Y025884D01*
X025137Y025890D01*
X025229Y025928D01*
X025307Y025988D01*
X025367Y026066D01*
X025405Y026158D01*
X025418Y026256D01*
Y026285D01*
D02*
G37*
%LPD*%
G54D10*
X026476Y012795D02*
D03*
X027476Y012795D02*
D03*
X028476Y012795D02*
D03*
X029476D02*
D03*
X030476Y012795D02*
D03*
X031476Y012795D02*
D03*
X032476Y012795D02*
D03*
X033476D02*
D03*
X034476Y012795D02*
D03*
X035476D02*
D03*
X036476Y012795D02*
D03*
X037476Y012795D02*
D03*
X038476Y012795D02*
D03*
X039476Y012795D02*
D03*
X040476Y012795D02*
D03*
X041476Y012795D02*
D03*
X042476D02*
D03*
X043476Y012795D02*
D03*
X044476D02*
D03*
X045476Y012795D02*
D03*
X046476Y012795D02*
D03*
X047476D02*
D03*
X048476D02*
D03*
X049476Y012795D02*
D03*
X050476Y012795D02*
D03*
X051476Y012795D02*
D03*
X052476D02*
D03*
X053476D02*
D03*
X054476Y012795D02*
D03*
X055476Y012795D02*
D03*
X056476D02*
D03*
G54D11*
X027756Y027756D02*
D03*
X028543D02*
D03*
Y028740D02*
D03*
X027756D02*
D03*
G54D12*
X055906Y017953D02*
D03*
Y018740D02*
D03*
G54D13*
X024638Y018039D02*
X025323D01*
X025827Y018543D01*
Y019921D01*
X026417Y020512D01*
Y024094D01*
X028543Y026850D02*
Y027677D01*
X028583Y027717D01*
X028543Y027756D01*
Y028740D01*
Y029921D01*
X026063D01*
Y029358D01*
X026039Y029335D01*
X028543Y028740D02*
X051102D01*
X051142Y028701D01*
Y019803D01*
X053476Y015366D02*
X055394Y017283D01*
X055906D01*
Y017953D01*
X055476Y015791D02*
X057465Y017780D01*
X057913D01*
X057874Y018740D02*
X057913Y018780D01*
X057874Y018740D02*
X055906D01*
X055476Y015791D02*
Y012795D01*
X053476Y015366D02*
Y012795D01*
X059429Y021398D02*
X059429Y021398D01*
Y023169D01*
X058799D01*
Y021398D02*
X059429D01*
G54D14*
X026039Y025496D02*
X026850Y024685D01*
X030945D01*
X031378Y024252D01*
X040787D01*
X040827Y024291D01*
X039252Y022717D02*
X035551D01*
X035531Y022736D01*
X035925Y022146D02*
X044429D01*
X045248Y021327D01*
Y019835D01*
X044248D02*
Y017366D01*
X045039Y016575D01*
X050984D01*
X051457Y016102D01*
Y012815D01*
X051476Y012795D01*
X052476D02*
Y016461D01*
X051890Y017047D01*
X049685D01*
X049213Y017520D01*
X049449Y016024D02*
X050984D01*
X050787Y015551D02*
X050984Y015354D01*
X050787Y015551D02*
X045866D01*
X045472Y015945D01*
X045787Y016968D02*
Y023307D01*
X046614Y024134D01*
X047677Y023701D02*
X046772Y022795D01*
Y016968D01*
Y016929D01*
X047953Y016968D02*
Y022736D01*
X048346Y023130D01*
X048661Y022736D02*
Y019764D01*
X050984Y017441D01*
X051693Y017717D02*
Y019567D01*
X053524Y021398D01*
X055354D01*
X056240D01*
X055354D02*
X055374Y021417D01*
Y023169D01*
X056240D01*
X052461Y018898D02*
Y017717D01*
X046248Y025835D02*
Y026508D01*
X045433Y027323D01*
X030394D01*
X029764Y026693D01*
X027756Y027756D02*
X025098D01*
X024039Y028815D01*
Y029335D01*
X025039D02*
Y028996D01*
X025295Y028740D01*
X027756D01*
X026039Y026335D02*
Y025496D01*
X029626Y021654D02*
X030413D01*
Y020472D02*
X029724D01*
X028927Y019675D01*
Y017234D01*
X027476Y015783D01*
Y012795D01*
X026476Y012795D02*
Y018445D01*
X027071Y019039D01*
X027638D01*
X028012Y020039D02*
X029626Y021654D01*
X028012Y020039D02*
X027638D01*
X030472Y017126D02*
Y019409D01*
Y017126D02*
X028476Y015130D01*
Y012795D01*
X031476Y012795D02*
X031496Y012815D01*
Y022244D01*
X032480Y022638D02*
Y012799D01*
X032476Y012795D01*
X033465Y012807D02*
X033496Y012839D01*
X033465Y012870D01*
Y023622D01*
X035866Y021417D02*
X037874D01*
X038248Y021043D01*
Y019835D01*
X037248Y019835D02*
Y018390D01*
X036850Y017992D01*
X036299D01*
X036476Y016161D02*
Y012795D01*
X037476Y012795D02*
Y016067D01*
X035248Y018295D01*
Y019835D01*
X034248Y019835D02*
Y018390D01*
X036476Y016161D01*
X035476Y016531D02*
X034488Y017520D01*
X034449D01*
X034476Y016665D02*
Y016614D01*
Y012795D01*
X035476D02*
Y016531D01*
X033465Y012807D02*
X033476Y012795D01*
X040476Y016697D02*
X040787Y017008D01*
Y021457D01*
G54D15*
X024638Y018039D02*
D03*
Y019039D02*
D03*
Y020039D02*
D03*
Y021039D02*
D03*
Y022039D02*
D03*
Y023039D02*
D03*
Y024039D02*
D03*
X027638Y022039D02*
D03*
Y021039D02*
D03*
Y020039D02*
D03*
Y019039D02*
D03*
Y023039D02*
D03*
Y024039D02*
D03*
G54D16*
X027638Y018039D02*
D03*
G54D17*
X034248Y019835D02*
D03*
X035248Y019835D02*
D03*
X036248D02*
D03*
X037248D02*
D03*
X038248Y019835D02*
D03*
X039248Y019835D02*
D03*
X040248D02*
D03*
X041248D02*
D03*
X042248D02*
D03*
X043248Y019835D02*
D03*
X044248Y019835D02*
D03*
X045248D02*
D03*
X046248D02*
D03*
X047248Y019835D02*
D03*
X046248Y025835D02*
D03*
X045248D02*
D03*
X044248D02*
D03*
X043248D02*
D03*
X042248D02*
D03*
X041248D02*
D03*
X040248D02*
D03*
X039248D02*
D03*
X038248D02*
D03*
X037248D02*
D03*
X036248D02*
D03*
X035248D02*
D03*
X034248D02*
D03*
G54D18*
X047248Y025835D02*
D03*
G54D19*
X024039Y026335D02*
D03*
G54D20*
X026039Y026335D02*
D03*
X025039D02*
D03*
X026039Y029335D02*
D03*
X025039D02*
D03*
X024039D02*
D03*
G54D21*
X057913Y017780D02*
D03*
Y018780D02*
D03*
G54D22*
X056240Y021398D02*
D03*
X058799D02*
D03*
Y023169D02*
D03*
X056240D02*
D03*
G54D23*
X026417Y024094D02*
D03*
X028583Y025669D02*
D03*
X028543Y026850D02*
D03*
X049803Y021457D02*
D03*
X051142Y019803D02*
D03*
X055906Y017283D02*
D03*
G54D24*
X029764Y026693D02*
D03*
X033465Y023622D02*
D03*
X032480Y022638D02*
D03*
X031496Y022244D02*
D03*
X030413Y021654D02*
D03*
Y020472D02*
D03*
X030472Y019409D02*
D03*
X034476Y016614D02*
D03*
X034488Y017520D02*
D03*
X036299Y017992D02*
D03*
X040476Y016697D02*
D03*
X045472Y015945D02*
D03*
X045787Y016968D02*
D03*
X046772D02*
D03*
X047953D02*
D03*
X049213Y017520D02*
D03*
X049449Y016024D02*
D03*
X050984Y015354D02*
D03*
Y016024D02*
D03*
X051693Y017717D02*
D03*
X052461D02*
D03*
Y018898D02*
D03*
X050984Y017441D02*
D03*
X048661Y022736D02*
D03*
X048346Y023130D02*
D03*
X047677Y023701D02*
D03*
X046614Y024134D02*
D03*
X040827Y024291D02*
D03*
X039252Y022717D02*
D03*
X040787Y021457D02*
D03*
X035925Y022146D02*
D03*
X035531Y022736D02*
D03*
X035866Y021417D02*
D03*
M02*
