M48
;Layer_Color=9474304
;FILE_FORMAT=2:4
INCH,TZ
;TYPE=PLATED
T1F00S00C0.0157
T2F00S00C0.0315
T3F00S00C0.0394
%
T01
X50984Y15354
Y16024
Y17441
X51693Y17717
X52461
Y18898
X49213Y17520
X49449Y16024
X47953Y16968
X48661Y22736
X48346Y23130
X47677Y23701
X46614Y24134
X40827Y24291
X40787Y21457
X39252Y22717
X35531Y22736
X35925Y22146
X35866Y21417
X36299Y17992
X34488Y17520
X34476Y16614
X40476Y16697
X45787Y16968
X46772
X45472Y15945
X33465Y23622
X32480Y22638
X31496Y22244
X30413Y21654
Y20472
X30472Y19409
X29764Y26693
T02
X51142Y19803
X49803Y21457
X55906Y17283
X57913Y17780
Y18780
X27638Y19039
Y20039
Y21039
Y22039
Y23039
Y24039
X26417Y24094
X24638Y24039
Y23039
Y22039
Y21039
Y20039
Y19039
Y18039
X27638
X28583Y25669
X28543Y26850
T03
X47248Y19835
Y25835
X56240Y23169
Y21398
X58799
Y23169
X46248Y25835
X45248
X44248
X43248
X42248
X41248
X40248
X39248
X38248
X37248
X36248
X35248
X34248
Y19835
X35248Y19835
X36248
X37248
X38248Y19835
X39248Y19835
X40248
X41248
X42248
X43248Y19835
X44248Y19835
X45248
X46248
X26039Y26335
X25039
X24039
Y29335
X25039
X26039
M30
