G04 Layer_Physical_Order=2*
G04 Layer_Color=16711680*
%FSAX24Y24*%
%MOIN*%
G70*
G01*
G75*
G04:AMPARAMS|DCode=10|XSize=59.1mil|YSize=393.7mil|CornerRadius=14.8mil|HoleSize=0mil|Usage=FLASHONLY|Rotation=0.000|XOffset=0mil|YOffset=0mil|HoleType=Round|Shape=RoundedRectangle|*
%AMROUNDEDRECTD10*
21,1,0.0591,0.3642,0,0,0.0*
21,1,0.0295,0.3937,0,0,0.0*
1,1,0.0295,0.0148,-0.1821*
1,1,0.0295,-0.0148,-0.1821*
1,1,0.0295,-0.0148,0.1821*
1,1,0.0295,0.0148,0.1821*
%
%ADD10ROUNDEDRECTD10*%
%ADD12O,0.0669X0.0394*%
%ADD13C,0.0295*%
%ADD14C,0.0118*%
%ADD15O,0.0551X0.0472*%
G04:AMPARAMS|DCode=16|XSize=55.1mil|YSize=47.2mil|CornerRadius=11.8mil|HoleSize=0mil|Usage=FLASHONLY|Rotation=180.000|XOffset=0mil|YOffset=0mil|HoleType=Round|Shape=RoundedRectangle|*
%AMROUNDEDRECTD16*
21,1,0.0551,0.0236,0,0,180.0*
21,1,0.0315,0.0472,0,0,180.0*
1,1,0.0236,-0.0157,0.0118*
1,1,0.0236,0.0157,0.0118*
1,1,0.0236,0.0157,-0.0118*
1,1,0.0236,-0.0157,-0.0118*
%
%ADD16ROUNDEDRECTD16*%
%ADD17O,0.0551X0.0630*%
G04:AMPARAMS|DCode=18|XSize=55.1mil|YSize=63mil|CornerRadius=13.8mil|HoleSize=0mil|Usage=FLASHONLY|Rotation=180.000|XOffset=0mil|YOffset=0mil|HoleType=Round|Shape=RoundedRectangle|*
%AMROUNDEDRECTD18*
21,1,0.0551,0.0354,0,0,180.0*
21,1,0.0276,0.0630,0,0,180.0*
1,1,0.0276,-0.0138,0.0177*
1,1,0.0276,0.0138,0.0177*
1,1,0.0276,0.0138,-0.0177*
1,1,0.0276,-0.0138,-0.0177*
%
%ADD18ROUNDEDRECTD18*%
G04:AMPARAMS|DCode=19|XSize=55.1mil|YSize=70.9mil|CornerRadius=13.8mil|HoleSize=0mil|Usage=FLASHONLY|Rotation=0.000|XOffset=0mil|YOffset=0mil|HoleType=Round|Shape=RoundedRectangle|*
%AMROUNDEDRECTD19*
21,1,0.0551,0.0433,0,0,0.0*
21,1,0.0276,0.0709,0,0,0.0*
1,1,0.0276,0.0138,-0.0217*
1,1,0.0276,-0.0138,-0.0217*
1,1,0.0276,-0.0138,0.0217*
1,1,0.0276,0.0138,0.0217*
%
%ADD19ROUNDEDRECTD19*%
%ADD20O,0.0551X0.0709*%
%ADD21C,0.0512*%
%ADD22C,0.0630*%
%ADD23C,0.0472*%
%ADD24C,0.0315*%
%ADD25O,0.0866X0.0630*%
%ADD26O,0.0630X0.0866*%
G36*
X059685Y024409D02*
X059685Y015945D01*
X055866D01*
X055630Y015709D01*
Y014873D01*
X055624Y014869D01*
X055526D01*
Y012795D01*
X055426D01*
Y014869D01*
X055354D01*
Y015906D01*
X057677Y018228D01*
X058583D01*
Y020827D01*
X049200D01*
X049173Y020868D01*
X049184Y020896D01*
X049191Y020954D01*
X048661D01*
X048131D01*
X048139Y020896D01*
X048150Y020868D01*
X048123Y020827D01*
X048032D01*
Y021890D01*
X052177D01*
Y023858D01*
X058275D01*
X058275Y024409D01*
X059685Y024409D01*
D02*
G37*
%LPC*%
G36*
X056240Y021795D02*
X056137Y021781D01*
X056042Y021742D01*
X055959Y021678D01*
X055896Y021596D01*
X055857Y021500D01*
X055843Y021398D01*
X055857Y021295D01*
X055896Y021199D01*
X055959Y021117D01*
X056042Y021054D01*
X056137Y021014D01*
X056240Y021001D01*
X056343Y021014D01*
X056439Y021054D01*
X056521Y021117D01*
X056584Y021199D01*
X056624Y021295D01*
X056637Y021398D01*
X056624Y021500D01*
X056584Y021596D01*
X056521Y021678D01*
X056439Y021742D01*
X056343Y021781D01*
X056240Y021795D01*
D02*
G37*
G36*
X058749Y021348D02*
X058387D01*
X058395Y021289D01*
X058437Y021188D01*
X058503Y021102D01*
X058590Y021035D01*
X058691Y020993D01*
X058749Y020986D01*
Y021348D01*
D02*
G37*
G36*
X048780Y021422D02*
X048711D01*
Y021054D01*
X049191D01*
X049184Y021112D01*
X049142Y021213D01*
X049075Y021300D01*
X048989Y021366D01*
X048888Y021408D01*
X048780Y021422D01*
D02*
G37*
G36*
X048611D02*
X048543D01*
X048435Y021408D01*
X048334Y021366D01*
X048247Y021300D01*
X048181Y021213D01*
X048139Y021112D01*
X048131Y021054D01*
X048611D01*
Y021422D01*
D02*
G37*
G36*
X059211Y021348D02*
X058849D01*
Y020986D01*
X058908Y020993D01*
X059008Y021035D01*
X059095Y021102D01*
X059162Y021188D01*
X059203Y021289D01*
X059211Y021348D01*
D02*
G37*
G36*
X057863Y017730D02*
X057561D01*
X057567Y017687D01*
X057603Y017600D01*
X057660Y017526D01*
X057734Y017469D01*
X057820Y017433D01*
X057863Y017427D01*
Y017730D01*
D02*
G37*
G36*
X058266D02*
X057963D01*
Y017427D01*
X058006Y017433D01*
X058093Y017469D01*
X058167Y017526D01*
X058224Y017600D01*
X058260Y017687D01*
X058266Y017730D01*
D02*
G37*
G36*
X057963Y018132D02*
Y017830D01*
X058266D01*
X058260Y017872D01*
X058224Y017959D01*
X058167Y018033D01*
X058093Y018090D01*
X058006Y018126D01*
X057963Y018132D01*
D02*
G37*
G36*
X057863Y018132D02*
X057820Y018126D01*
X057734Y018090D01*
X057660Y018033D01*
X057603Y017959D01*
X057567Y017872D01*
X057561Y017830D01*
X057863D01*
Y018132D01*
D02*
G37*
G36*
X049753Y021407D02*
X049471D01*
X049476Y021369D01*
X049509Y021287D01*
X049563Y021217D01*
X049634Y021163D01*
X049715Y021129D01*
X049753Y021124D01*
Y021407D01*
D02*
G37*
G36*
X058749Y023119D02*
X058387D01*
X058395Y023061D01*
X058437Y022960D01*
X058503Y022873D01*
X058590Y022807D01*
X058691Y022765D01*
X058749Y022757D01*
Y023119D01*
D02*
G37*
G36*
X059211D02*
X058849D01*
Y022757D01*
X058908Y022765D01*
X059008Y022807D01*
X059095Y022873D01*
X059162Y022960D01*
X059203Y023061D01*
X059211Y023119D01*
D02*
G37*
G36*
X056240Y023566D02*
X056137Y023553D01*
X056042Y023513D01*
X055959Y023450D01*
X055896Y023368D01*
X055857Y023272D01*
X055843Y023169D01*
X055857Y023067D01*
X055896Y022971D01*
X055959Y022889D01*
X056042Y022825D01*
X056137Y022786D01*
X056240Y022772D01*
X056343Y022786D01*
X056439Y022825D01*
X056521Y022889D01*
X056584Y022971D01*
X056624Y023067D01*
X056637Y023169D01*
X056624Y023272D01*
X056584Y023368D01*
X056521Y023450D01*
X056439Y023513D01*
X056343Y023553D01*
X056240Y023566D01*
D02*
G37*
G36*
X058849Y023581D02*
Y023219D01*
X059211D01*
X059203Y023278D01*
X059162Y023379D01*
X059095Y023465D01*
X059008Y023532D01*
X058908Y023574D01*
X058849Y023581D01*
D02*
G37*
G36*
X058749Y023581D02*
X058691Y023574D01*
X058590Y023532D01*
X058503Y023465D01*
X058437Y023379D01*
X058395Y023278D01*
X058387Y023219D01*
X058749D01*
Y023581D01*
D02*
G37*
G36*
Y021810D02*
X058691Y021802D01*
X058590Y021760D01*
X058503Y021694D01*
X058437Y021607D01*
X058395Y021506D01*
X058387Y021448D01*
X058749D01*
Y021810D01*
D02*
G37*
G36*
X050136Y021407D02*
X049853D01*
Y021124D01*
X049891Y021129D01*
X049973Y021163D01*
X050043Y021217D01*
X050097Y021287D01*
X050131Y021369D01*
X050136Y021407D01*
D02*
G37*
G36*
X058849Y021810D02*
Y021448D01*
X059211D01*
X059203Y021506D01*
X059162Y021607D01*
X059095Y021694D01*
X059008Y021760D01*
X058908Y021802D01*
X058849Y021810D01*
D02*
G37*
G36*
X049853Y021789D02*
Y021507D01*
X050136D01*
X050131Y021544D01*
X050097Y021626D01*
X050043Y021696D01*
X049973Y021750D01*
X049891Y021784D01*
X049853Y021789D01*
D02*
G37*
G36*
X049753D02*
X049715Y021784D01*
X049634Y021750D01*
X049563Y021696D01*
X049509Y021626D01*
X049476Y021544D01*
X049471Y021507D01*
X049753D01*
Y021789D01*
D02*
G37*
%LPD*%
G54D10*
X026476Y012795D02*
D03*
X027476Y012795D02*
D03*
X028476Y012795D02*
D03*
X029476D02*
D03*
X030476Y012795D02*
D03*
X031476Y012795D02*
D03*
X032476Y012795D02*
D03*
X033476D02*
D03*
X034476Y012795D02*
D03*
X035476D02*
D03*
X036476Y012795D02*
D03*
X037476Y012795D02*
D03*
X038476Y012795D02*
D03*
X039476Y012795D02*
D03*
X040476Y012795D02*
D03*
X041476Y012795D02*
D03*
X042476D02*
D03*
X043476Y012795D02*
D03*
X044476D02*
D03*
X045476Y012795D02*
D03*
X046476Y012795D02*
D03*
X047476D02*
D03*
X048476D02*
D03*
X049476Y012795D02*
D03*
X050476Y012795D02*
D03*
X051476Y012795D02*
D03*
X052476D02*
D03*
X053476D02*
D03*
X054476Y012795D02*
D03*
X055476Y012795D02*
D03*
X056476D02*
D03*
G54D12*
X025787Y018189D02*
D03*
Y018976D02*
D03*
G54D13*
X024638Y018039D02*
X025638D01*
X025787Y018189D01*
X031476Y012795D02*
Y015492D01*
X032421D01*
X032476Y015437D01*
Y012795D01*
X027657Y024059D02*
Y025157D01*
X028346D01*
X028583Y025394D01*
Y025669D01*
X027657Y024059D02*
X027638Y024039D01*
X026969Y025689D02*
Y026063D01*
X027756Y026850D01*
X028543D01*
X026969Y025689D02*
X026437Y025157D01*
Y024114D01*
X026417Y024094D01*
X047248Y019835D02*
X048610D01*
X048661Y019783D01*
X053406D01*
X055906Y017283D01*
Y017008D01*
X054476Y015579D01*
Y012795D01*
G54D14*
X023795Y019039D02*
X024638D01*
X025567D01*
X025748Y018858D01*
X026476Y017480D02*
X027035Y018039D01*
X027638D01*
X026476Y017480D02*
Y012795D01*
X027476Y012795D02*
Y015902D01*
X029843Y018268D01*
X029764Y018346D01*
Y026693D01*
X033465Y023622D02*
Y024051D01*
X035248Y025835D01*
X036732Y024319D02*
X038248Y025835D01*
X037795Y024382D02*
X039248Y025835D01*
X038740Y024327D02*
X040248Y025835D01*
X040787Y024370D02*
X040827Y024331D01*
Y024291D01*
X040787Y024370D02*
Y021457D01*
X040248Y019835D02*
Y018709D01*
X041437Y017520D01*
X049213D01*
X048476Y016445D02*
Y012795D01*
X048504Y012823D01*
X049449Y012823D02*
X049476Y012795D01*
X049488Y012807D01*
X049449Y012823D02*
Y016024D01*
X050984Y015354D02*
X051693Y016063D01*
Y017717D01*
X052461D02*
Y012811D01*
X052476Y012795D01*
X053476D02*
Y017291D01*
X052657Y018110D01*
X043012D01*
X042248Y018874D01*
Y019835D01*
X043248Y019835D02*
Y018858D01*
X043701Y018406D01*
X051968D01*
X052461Y018898D01*
X050984Y017441D02*
Y016024D01*
X050476Y016846D02*
X049409Y017913D01*
X041929D01*
X041248Y018594D01*
Y019835D01*
X039724Y017677D02*
Y024311D01*
X041248Y025835D01*
X042248Y024409D02*
Y025835D01*
X043248D02*
Y024370D01*
X044488Y023130D01*
X048346D01*
X048425D01*
X048661Y022736D02*
X043921D01*
X042248Y024409D01*
X044248Y024902D02*
Y025835D01*
Y024902D02*
X045429Y023720D01*
X047736D01*
X046752Y024114D02*
X045669D01*
X045276Y024508D01*
Y025807D01*
X045248Y025835D01*
X047248D02*
Y026886D01*
X045689Y028445D01*
X025492D01*
X025039Y028898D01*
Y029335D01*
X024039D02*
Y028815D01*
X024902Y027953D01*
X040866D01*
X041732Y027087D01*
Y022480D01*
X042520Y021693D01*
X045591D01*
X046248Y021035D01*
Y019835D01*
X045787Y016968D02*
X046476Y016280D01*
Y012795D01*
X046457Y012815D01*
X047476Y012795D02*
Y016264D01*
X046772Y016968D01*
X047953D02*
X048476Y016445D01*
X050476Y016846D02*
Y012795D01*
X047476D02*
X047480Y012799D01*
X045476Y012795D02*
Y015941D01*
X045472Y015945D01*
X039724Y017677D02*
X037476Y015429D01*
Y012795D01*
X036476Y012795D02*
Y015512D01*
X038740Y017776D01*
Y024327D01*
X037795Y024382D02*
Y017717D01*
X035476Y015398D01*
Y012795D01*
X034476D02*
Y015480D01*
X036732Y017736D01*
Y024319D01*
X036248Y025760D02*
Y025835D01*
Y025760D02*
X033126Y022638D01*
X032480D01*
X033366Y021161D02*
X034941D01*
X035925Y022146D01*
X035531Y022736D02*
X034449Y021654D01*
X030413D01*
Y020472D02*
X032677D01*
X033366Y021161D01*
X033583Y020787D02*
X035236D01*
X035866Y021417D01*
X036248Y019835D02*
Y019280D01*
X034488Y017520D01*
X034476Y016614D02*
X035854Y017992D01*
X036299D01*
X039248Y019835D02*
X039252Y019839D01*
Y022717D01*
X037248Y025835D02*
X033657Y022244D01*
X031496D01*
X033583Y020787D02*
X032835Y020039D01*
X031102D01*
X030472Y019409D01*
X028331Y022032D02*
X028323Y022039D01*
X027638D01*
X024638D01*
X023803D01*
X023787Y022055D01*
Y023039D01*
X024638D01*
X023787Y022055D02*
X023780Y022047D01*
Y020039D01*
X024638D01*
X023780D02*
Y019055D01*
X023795Y019039D01*
X027638Y021039D02*
X028331D01*
Y022032D01*
X040476Y012795D02*
Y016697D01*
G54D15*
X024638Y018039D02*
D03*
Y019039D02*
D03*
Y020039D02*
D03*
Y021039D02*
D03*
Y022039D02*
D03*
Y023039D02*
D03*
Y024039D02*
D03*
X027638Y022039D02*
D03*
Y021039D02*
D03*
Y020039D02*
D03*
Y019039D02*
D03*
Y023039D02*
D03*
Y024039D02*
D03*
G54D16*
X027638Y018039D02*
D03*
G54D17*
X034248Y019835D02*
D03*
X035248Y019835D02*
D03*
X036248D02*
D03*
X037248D02*
D03*
X038248Y019835D02*
D03*
X039248Y019835D02*
D03*
X040248D02*
D03*
X041248D02*
D03*
X042248D02*
D03*
X043248Y019835D02*
D03*
X044248Y019835D02*
D03*
X045248D02*
D03*
X046248D02*
D03*
X047248Y019835D02*
D03*
X046248Y025835D02*
D03*
X045248D02*
D03*
X044248D02*
D03*
X043248D02*
D03*
X042248D02*
D03*
X041248D02*
D03*
X040248D02*
D03*
X039248D02*
D03*
X038248D02*
D03*
X037248D02*
D03*
X036248D02*
D03*
X035248D02*
D03*
X034248D02*
D03*
G54D18*
X047248Y025835D02*
D03*
G54D19*
X024039Y026335D02*
D03*
G54D20*
X026039Y026335D02*
D03*
X025039D02*
D03*
X026039Y029335D02*
D03*
X025039D02*
D03*
X024039D02*
D03*
G54D21*
X057913Y017780D02*
D03*
Y018780D02*
D03*
G54D22*
X056240Y021398D02*
D03*
X058799D02*
D03*
Y023169D02*
D03*
X056240D02*
D03*
G54D23*
X026417Y024094D02*
D03*
X028583Y025669D02*
D03*
X028543Y026850D02*
D03*
X049803Y021457D02*
D03*
X051142Y019803D02*
D03*
X055906Y017283D02*
D03*
G54D24*
X029764Y026693D02*
D03*
X033465Y023622D02*
D03*
X032480Y022638D02*
D03*
X031496Y022244D02*
D03*
X030413Y021654D02*
D03*
Y020472D02*
D03*
X030472Y019409D02*
D03*
X034476Y016614D02*
D03*
X034488Y017520D02*
D03*
X036299Y017992D02*
D03*
X040476Y016697D02*
D03*
X045472Y015945D02*
D03*
X045787Y016968D02*
D03*
X046772D02*
D03*
X047953D02*
D03*
X049213Y017520D02*
D03*
X049449Y016024D02*
D03*
X050984Y015354D02*
D03*
Y016024D02*
D03*
X051693Y017717D02*
D03*
X052461D02*
D03*
Y018898D02*
D03*
X050984Y017441D02*
D03*
X048661Y022736D02*
D03*
X048346Y023130D02*
D03*
X047677Y023701D02*
D03*
X046614Y024134D02*
D03*
X040827Y024291D02*
D03*
X039252Y022717D02*
D03*
X040787Y021457D02*
D03*
X035925Y022146D02*
D03*
X035531Y022736D02*
D03*
X035866Y021417D02*
D03*
G54D25*
X048661Y019783D02*
D03*
Y021004D02*
D03*
G54D26*
X026437Y025157D02*
D03*
X027657D02*
D03*
M02*
